<svg xmlns="http://www.w3.org/2000/svg" viewBox="0 0 177 36" height="36" width="177">
  <!-- Stamp: green circle + rotated negative-space square. Matches Logo.astro. -->
  <circle cx="16" cy="16" r="15" fill="#2D7652"/>
  <rect x="9.5" y="9.5" width="13" height="13" fill="#FFFFFF" transform="rotate(16 16 16)"/>

  <!-- Wordmark: Instrument Serif italic, baked to paths (no font dependency). -->
  <path d="M74 -10Q41 -10 27.0 14.5Q13 39 26 95L153 640Q158 658 153.5 665.0Q149 672 135 673L105 676Q90 677 92 689Q94 698 106 700Q142 706 170.0 714.5Q198 723 215 737Q223 743 230 743Q242 743 239 728L91 94Q86 72 89.5 59.5Q93 47 108 47Q126 47 147.5 73.5Q169 100 196 174Q200 187 210 187Q225 187 218 169Q197 101 171.5 61.5Q146 22 121.0 6.0Q96 -10 74 -10Z" fill="#171411" transform="translate(44.000 26) scale(0.02600 -0.02600)"/>
  <path d="M129 -9Q76 -9 44.0 32.5Q12 74 12 150Q12 216 35.5 281.0Q59 346 97.0 399.0Q135 452 180.5 484.0Q226 516 269 516Q316 516 336.5 493.5Q357 471 357 433Q357 388 325.5 343.5Q294 299 237.5 264.0Q181 229 105 212Q83 207 82 187Q81 180 81.0 172.5Q81 165 81 158Q81 101 100.5 72.0Q120 43 154 43Q192 43 227.5 78.0Q263 113 287 177Q290 186 299 186Q305 186 306.5 181.0Q308 176 306 169Q274 81 228.5 36.0Q183 -9 129 -9ZM92 250Q90 243 94.5 238.5Q99 234 106 236Q168 253 210.0 287.5Q252 322 273.5 365.0Q295 408 295 449Q295 491 262 491Q233 491 199.0 457.0Q165 423 136.0 368.0Q107 313 92 250Z" fill="#171411" transform="translate(50.240 26) scale(0.02600 -0.02600)"/>
  <path d="M102 -9Q68 -9 49.0 18.0Q30 45 43 105L126 467Q129 482 114 482H76Q62 482 62 495Q62 502 67.0 506.0Q72 510 79 510H115Q138 510 142 531L166 638Q169 649 180 649H221Q235 649 232 636L207 525Q204 510 219 510H276Q293 510 293 497Q293 482 272 482H218Q196 482 191 461L107 95Q102 73 108.5 60.5Q115 48 131 48Q154 48 173.5 74.0Q193 100 215 173Q219 186 228 186Q235 186 237.0 180.0Q239 174 234 158Q215 90 192.5 54.0Q170 18 147.0 4.5Q124 -9 102 -9Z" fill="#171411" transform="translate(59.288 26) scale(0.02600 -0.02600)"/>
  <path d="M591 -9Q555 -9 537.0 21.0Q519 51 535 114L612 404Q623 443 615.5 458.0Q608 473 594 473Q574 473 548.0 445.5Q522 418 493.5 371.0Q465 324 438.0 264.0Q411 204 388.0 139.0Q365 74 350 11Q347 0 336 0H297Q283 0 286 13L378 404Q387 443 380.5 458.0Q374 473 360 473Q341 473 315.0 445.5Q289 418 261.0 371.0Q233 324 206.0 264.0Q179 204 156.0 139.0Q133 74 119 11Q116 0 105 0H64Q50 0 53 13L148 412Q153 434 149.5 446.5Q146 459 131 459Q113 459 91.5 432.5Q70 406 43 332Q39 319 29 319Q14 319 21 337Q43 406 67.5 445.0Q92 484 117.0 500.0Q142 516 163 516Q196 516 210.0 491.5Q224 467 211 411L186 303Q185 296 189.0 295.0Q193 294 196 300Q254 420 301.0 468.0Q348 516 387 516Q424 516 439.5 486.0Q455 456 441 394L420 303Q419 296 423.0 295.0Q427 294 430 300Q468 381 501.5 428.5Q535 476 565.0 496.0Q595 516 621 516Q658 516 675.0 486.0Q692 456 675 394L599 104Q592 76 598.0 62.0Q604 48 620 48Q640 48 659.5 74.5Q679 101 700 175Q703 186 713 186Q721 186 722.5 180.0Q724 174 722 166Q703 98 681.0 59.5Q659 21 636.5 6.0Q614 -9 591 -9Z" fill="#171411" transform="translate(66.360 26) scale(0.02600 -0.02600)"/>
  <path d="M129 -9Q76 -9 44.0 32.5Q12 74 12 150Q12 216 35.5 281.0Q59 346 97.0 399.0Q135 452 180.5 484.0Q226 516 269 516Q316 516 336.5 493.5Q357 471 357 433Q357 388 325.5 343.5Q294 299 237.5 264.0Q181 229 105 212Q83 207 82 187Q81 180 81.0 172.5Q81 165 81 158Q81 101 100.5 72.0Q120 43 154 43Q192 43 227.5 78.0Q263 113 287 177Q290 186 299 186Q305 186 306.5 181.0Q308 176 306 169Q274 81 228.5 36.0Q183 -9 129 -9ZM92 250Q90 243 94.5 238.5Q99 234 106 236Q168 253 210.0 287.5Q252 322 273.5 365.0Q295 408 295 449Q295 491 262 491Q233 491 199.0 457.0Q165 423 136.0 368.0Q107 313 92 250Z" fill="#171411" transform="translate(85.730 26) scale(0.02600 -0.02600)"/>
  <path d="M-76 -205Q-89 -205 -89 -194Q-89 -184 -73 -182L-59 -180Q-39 -177 -29.5 -168.5Q-20 -160 -15 -138L118 436Q120 444 115.5 448.5Q111 453 103 448Q93 443 84.0 437.5Q75 432 66 426Q57 420 51.0 422.5Q45 425 45 432Q45 439 55 446Q83 465 113 479Q130 487 134 505L147 562Q152 583 173 583H191Q203 583 209.0 576.0Q215 569 212 556L205 527Q202 510 218 513Q241 516 262 516Q336 516 383.0 474.0Q430 432 430 345Q430 277 405.0 213.5Q380 150 339.0 100.0Q298 50 249.0 20.5Q200 -9 151 -9Q124 -9 100 2Q85 9 82 -6L52 -138Q47 -160 52.5 -167.0Q58 -174 77 -177L103 -181Q121 -184 121 -193Q121 -205 104 -205ZM110 115Q92 16 153 16Q188 16 224.0 45.5Q260 75 291.0 124.5Q322 174 341.0 236.0Q360 298 360 363Q360 430 331.0 459.5Q302 489 246 489Q196 489 189 455Z" fill="#171411" transform="translate(94.778 26) scale(0.02600 -0.02600)"/>
  <path d="M154 -9Q92 -9 56.0 42.5Q20 94 20 182Q20 247 41.0 307.0Q62 367 96.5 414.0Q131 461 173.5 488.5Q216 516 259 516Q321 516 357.0 465.0Q393 414 393 325Q393 260 372.0 200.0Q351 140 316.5 93.0Q282 46 239.5 18.5Q197 -9 154 -9ZM152 15Q184 15 214.5 46.0Q245 77 270.0 128.0Q295 179 310.0 241.5Q325 304 325 367Q325 492 260 492Q229 492 198.0 461.5Q167 431 142.5 380.0Q118 329 103.0 266.5Q88 204 88 141Q88 15 152 15Z" fill="#171411" transform="translate(106.478 26) scale(0.02600 -0.02600)"/>
  <path d="M116 -9Q83 -9 46.5 1.0Q10 11 -9 26Q-16 32 -15 44L7 175Q9 188 19 188Q30 188 30 174L32 126Q34 69 59.5 42.5Q85 16 122 16Q154 16 177.0 36.5Q200 57 200 97Q200 120 193.0 139.5Q186 159 171.0 181.5Q156 204 130 236Q96 280 79.5 311.5Q63 343 63 377Q63 440 102.5 478.0Q142 516 203 516Q230 516 255.5 508.0Q281 500 298 484Q307 477 304 466L276 332Q273 319 264 319Q255 319 253 333L250 381Q246 441 234.5 467.0Q223 493 187 493Q155 493 135.0 471.0Q115 449 115 418Q115 385 133.0 357.5Q151 330 182 288Q223 234 237.5 202.0Q252 170 252 137Q252 95 233.5 62.0Q215 29 184.0 10.0Q153 -9 116 -9Z" fill="#171411" transform="translate(117.242 26) scale(0.02600 -0.02600)"/>
  <path d="M102 -9Q68 -9 49.0 18.0Q30 45 43 105L126 467Q129 482 114 482H76Q62 482 62 495Q62 502 67.0 506.0Q72 510 79 510H115Q138 510 142 531L166 638Q169 649 180 649H221Q235 649 232 636L207 525Q204 510 219 510H276Q293 510 293 497Q293 482 272 482H218Q196 482 191 461L107 95Q102 73 108.5 60.5Q115 48 131 48Q154 48 173.5 74.0Q193 100 215 173Q219 186 228 186Q235 186 237.0 180.0Q239 174 234 158Q215 90 192.5 54.0Q170 18 147.0 4.5Q124 -9 102 -9Z" fill="#171411" transform="translate(125.094 26) scale(0.02600 -0.02600)"/>
  <path d="M62 -9Q41 -9 28.0 4.5Q15 18 15 38Q15 64 33.0 80.0Q51 96 71 96Q91 96 104.5 82.5Q118 69 118 49Q118 23 100.0 7.0Q82 -9 62 -9Z" fill="#2D7652" transform="translate(132.166 26) scale(0.02600 -0.02600)"/>
  <path d="M90 -9Q53 -9 33.0 22.0Q13 53 13 113Q13 170 29.0 227.5Q45 285 73.0 337.0Q101 389 136.5 429.0Q172 469 211.5 492.5Q251 516 290 516Q317 516 337 502Q351 493 354 508L386 640Q391 658 386.5 665.0Q382 672 368 673L338 676Q323 677 325 689Q327 698 339 700Q375 706 403.0 714.5Q431 723 448 737Q456 743 463 743Q475 743 472 728L330 113Q315 48 350 48Q373 48 391.5 79.0Q410 110 429 175Q432 186 442 186Q449 186 451.0 180.0Q453 174 451 166Q432 72 398.5 31.5Q365 -9 320 -9Q281 -9 264.5 24.0Q248 57 261 114L272 160Q274 167 269.5 168.0Q265 169 262 163Q214 69 171.0 30.0Q128 -9 90 -9ZM114 42Q138 42 167.0 71.0Q196 100 224.5 146.0Q253 192 277.0 245.0Q301 298 315.5 347.0Q330 396 330 430Q330 491 287 491Q261 491 232.0 467.5Q203 444 176.5 404.0Q150 364 128.5 313.5Q107 263 94.0 208.5Q81 154 81 102Q81 67 90.5 54.5Q100 42 114 42Z" fill="#2D7652" transform="translate(137.860 26) scale(0.02600 -0.02600)"/>
  <path d="M129 -9Q76 -9 44.0 32.5Q12 74 12 150Q12 216 35.5 281.0Q59 346 97.0 399.0Q135 452 180.5 484.0Q226 516 269 516Q316 516 336.5 493.5Q357 471 357 433Q357 388 325.5 343.5Q294 299 237.5 264.0Q181 229 105 212Q83 207 82 187Q81 180 81.0 172.5Q81 165 81 158Q81 101 100.5 72.0Q120 43 154 43Q192 43 227.5 78.0Q263 113 287 177Q290 186 299 186Q305 186 306.5 181.0Q308 176 306 169Q274 81 228.5 36.0Q183 -9 129 -9ZM92 250Q90 243 94.5 238.5Q99 234 106 236Q168 253 210.0 287.5Q252 322 273.5 365.0Q295 408 295 449Q295 491 262 491Q233 491 199.0 457.0Q165 423 136.0 368.0Q107 313 92 250Z" fill="#2D7652" transform="translate(150.184 26) scale(0.02600 -0.02600)"/>
  <path d="M151 -9Q102 -9 78.0 28.0Q54 65 69 123L146 412Q159 459 130 459Q109 459 88.5 429.0Q68 399 44 331Q40 319 30 319Q25 319 22.0 323.5Q19 328 21 335Q79 516 166 516Q200 516 212.0 488.0Q224 460 211 411L132 113Q121 71 130.5 48.5Q140 26 165 26Q194 26 226.5 54.0Q259 82 288.0 127.0Q317 172 335.0 226.0Q353 280 353 332Q353 374 344.0 398.5Q335 423 325.5 440.0Q316 457 316 477Q316 516 350 516Q398 516 398 410Q398 334 376.0 259.5Q354 185 318.0 124.5Q282 64 238.5 27.5Q195 -9 151 -9Z" fill="#2D7652" transform="translate(159.232 26) scale(0.02600 -0.02600)"/>
</svg>
